<svg width="174" height="153" viewBox="0 0 174 153" fill="none" xmlns="http://www.w3.org/2000/svg">
<g filter="url(#filter0_dd_2_12)">
<path d="M4.4581 139V0.818176H61.5391C71.8847 0.818176 80.8135 2.68489 88.3253 6.41832C95.8821 10.1068 101.707 15.4145 105.8 22.3416C109.894 29.2237 111.94 37.3878 111.94 46.8338C111.94 56.4148 109.849 64.5563 105.665 71.2585C101.482 77.9157 95.5447 82.9986 87.853 86.5071C80.1612 89.9706 71.0526 91.7024 60.527 91.7024H24.4297V65.3885H54.3196C59.3575 65.3885 63.5632 64.7363 66.9368 63.4318C70.3554 62.0824 72.9418 60.0582 74.696 57.3594C76.4503 54.6155 77.3274 51.107 77.3274 46.8338C77.3274 42.5606 76.4503 39.0296 74.696 36.2408C72.9418 33.407 70.3554 31.2928 66.9368 29.8984C63.5182 28.459 59.3125 27.7393 54.3196 27.7393H37.8565V139H4.4581ZM82.2528 75.8466L96.2814 106.5L116.663 139L82.2528 136L57 75.8466H82.2528Z" fill="#FEF3C7"/>
<path d="M168.674 6.05361L169.387 144.234L112.307 144.528C101.961 144.581 93.0231 142.761 85.4921 139.066C77.9164 135.417 72.0641 130.139 67.9351 123.233C63.8064 116.372 61.7177 108.219 61.6689 98.773C61.6195 89.1921 63.6691 81.0399 67.8177 74.3162C71.9666 67.6375 77.8778 62.5241 85.5513 58.976C93.2251 55.4728 102.325 53.6941 112.85 53.6398L148.947 53.4536L149.083 79.7672L119.193 79.9213C114.155 79.9473 109.953 80.6212 106.586 81.943C103.175 83.3101 100.599 85.3476 98.8585 88.0554C97.1184 90.8083 96.2594 94.3213 96.2814 98.5944C96.3035 102.868 97.1988 106.394 98.9674 109.174C100.736 111.998 103.334 114.099 106.759 115.476C110.185 116.898 114.395 117.596 119.387 117.57L135.85 117.485L135.276 6.22588L168.674 6.05361ZM91.2064 69.6074L76 36.2408L57 4.5L96.2814 11.397L105.665 38L126.966 69.423L91.2064 69.6074Z" fill="#FEF3C7"/>
</g>
<path d="M114.398 69.5047L107.48 64.3165M97.2993 50.4771C101.031 49.8491 104.591 52.5191 105.251 56.4406M109.305 55.7584C110.361 62.0329 106.377 67.9339 100.406 68.9387C94.4352 69.9435 88.7389 65.6716 87.683 59.3971C86.6271 53.1226 90.6115 47.2216 96.5824 46.2168C102.553 45.212 108.25 49.4839 109.305 55.7584Z" stroke="#166534" stroke-width="2" stroke-linecap="round" stroke-linejoin="round"/>
<defs>
<filter id="filter0_dd_2_12" x="0.458099" y="0.818176" width="172.929" height="151.711" filterUnits="userSpaceOnUse" color-interpolation-filters="sRGB">
<feFlood flood-opacity="0" result="BackgroundImageFix"/>
<feColorMatrix in="SourceAlpha" type="matrix" values="0 0 0 0 0 0 0 0 0 0 0 0 0 0 0 0 0 0 127 0" result="hardAlpha"/>
<feOffset dy="4"/>
<feGaussianBlur stdDeviation="2"/>
<feComposite in2="hardAlpha" operator="out"/>
<feColorMatrix type="matrix" values="0 0 0 0 0 0 0 0 0 0 0 0 0 0 0 0 0 0 0.25 0"/>
<feBlend mode="normal" in2="BackgroundImageFix" result="effect1_dropShadow_2_12"/>
<feColorMatrix in="SourceAlpha" type="matrix" values="0 0 0 0 0 0 0 0 0 0 0 0 0 0 0 0 0 0 127 0" result="hardAlpha"/>
<feOffset dy="4"/>
<feGaussianBlur stdDeviation="2"/>
<feComposite in2="hardAlpha" operator="out"/>
<feColorMatrix type="matrix" values="0 0 0 0 0 0 0 0 0 0 0 0 0 0 0 0 0 0 0.25 0"/>
<feBlend mode="normal" in2="effect1_dropShadow_2_12" result="effect2_dropShadow_2_12"/>
<feBlend mode="normal" in="SourceGraphic" in2="effect2_dropShadow_2_12" result="shape"/>
</filter>
</defs>
</svg>
